<?xml version="1.0" encoding="UTF-8" standalone="no"?><!DOCTYPE svg PUBLIC "-//W3C//DTD SVG 1.1//EN" "http://www.w3.org/Graphics/SVG/1.1/DTD/svg11.dtd"><svg width="100%" height="100%" viewBox="0 0 130 130" version="1.1" xmlns="http://www.w3.org/2000/svg" xmlns:xlink="http://www.w3.org/1999/xlink" xml:space="preserve" xmlns:serif="http://www.serif.com/" style="fill-rule:evenodd;clip-rule:evenodd;stroke-linejoin:round;stroke-miterlimit:2;"><g><g transform="matrix(1.88406,0,0,2.16667,-28.2609,-21.6667)"><rect x="15" y="10" width="69" height="60" style="fill:url(#_Linear1);"/></g><g transform="matrix(0.114028,0,0,0.114028,2.54459,11.201)"><g><path d="M858,595C860.214,587.692 864.01,566.656 864,560C884.758,553.971 904.078,555.042 923,562C970.136,585.069 986.371,615.898 997,646C986.16,637.349 975.452,629.626 961,629C1006.01,681.645 1023.83,733.937 1024,786C1005.39,770.227 982.947,757.97 952.033,753.49C915.593,747.983 892.493,741.488 879,736C879.728,742.8 888.153,752.456 906,764C844.64,765.693 808.599,733.145 788,687.523C799.769,679.029 810.285,670.22 816,663C820.912,675.345 828.78,683.99 839.117,689.186C848.499,693.902 859.914,695.777 873,695C872.717,688.238 870.963,681.932 868,676C890.695,694.059 915.741,704.421 945,701C925.172,668.402 905.959,646.495 887,629L912,632C900.388,608.149 882.485,594.363 858,595Z" style="fill:#fff;"/><g transform="matrix(8.76975,0,0,8.76975,-22.3155,-98.2296)"><path d="M13.719,49.743C8.386,44.97 11.271,40.56 13.491,40.392C14.722,40.299 15.259,40.814 15.658,42.217C16.11,43.807 17.596,44.455 19.193,44.611C21.63,44.85 25.208,41.819 34.701,31.498C40.071,24.85 47.284,20.582 53.743,19.753C61.34,18.778 67.045,20.545 73.356,26.367C78.132,26.461 82.45,27.815 86.355,31.384C87.407,32.755 91.103,35.008 91.373,42.331C91.635,49.458 85.371,58.348 75.751,60.233C66.169,61.956 58.976,59.701 55.796,53.848C55.042,55.195 55.256,57.187 57.962,59.777C61.21,62.443 65.605,63.434 70.049,63.426C78.638,63.129 85.896,60.378 91.145,52.023C94.917,56.737 97.975,61.789 98.975,67.813C99.471,70.799 99.462,74.024 98.784,77.565C98.086,80.573 96.665,83.506 94.109,86.004C80.96,97.251 72.987,104.716 68.225,109.835C67.291,110.717 66.22,110.687 65.374,109.949L55.91,101.283C55.171,100.55 55.131,99.538 55.91,98.889C59.005,95.397 62.561,92.235 64.348,88.512C64.471,88.255 64.386,88.163 63.886,87.852C58.05,84.227 53.77,80.183 51.463,74.829C51.082,73.965 50.246,74.075 49.638,74.601L39.49,83.381C38.403,84.3 37.339,84.283 36.297,83.381L27.175,74.943C26.081,73.61 26.136,73.011 27.403,71.75C33.36,66.648 38.597,61.428 43.367,55.444C44.449,53.905 45.024,52.325 44.963,50.541C44.931,49.602 44.431,48.203 43.253,47.804C41.396,47.283 39.617,46.455 37.893,45.409C31.313,50.058 28.103,51.616 24.438,52.251C20.411,52.726 16.833,52.096 13.719,49.743Z" style="fill:#fff;"/></g><path d="M98,338C51.228,296.15 76.53,257.473 96,256C106.793,255.183 111.506,259.701 115,272C118.963,285.949 131.996,291.631 146,293C167.372,295.089 198.757,268.514 282,178C329.101,119.702 392.351,82.27 449,75C515.619,66.45 565.649,81.943 621,133C662.881,133.828 700.747,145.701 735,177C744.22,189.023 776.637,208.78 779,273C781.3,335.505 726.371,413.468 642,430C557.972,445.108 494.892,425.331 467,374C460.392,385.82 462.27,403.287 486,426C514.482,449.384 553.025,458.071 592,458C667.318,455.393 730.968,431.268 777,358C810.085,399.337 836.897,443.641 845.674,496.478C850.023,522.664 849.943,550.945 844,582C837.872,608.38 825.411,634.093 803,656C687.683,754.638 617.764,820.105 576,865C567.806,872.729 558.418,872.469 551,866L468,790C461.522,783.568 461.173,774.696 468,769C495.146,738.378 526.331,710.644 542,678C543.082,675.747 542.333,674.934 537.951,672.212C486.766,640.417 449.237,604.958 429,558C425.659,550.423 418.326,551.389 413,556L324,633C314.47,641.065 305.14,640.916 296,633L216,559C206.405,547.313 206.893,542.058 218,531C270.244,486.253 316.173,440.476 358,388C367.495,374.5 372.533,360.648 372,345C371.72,336.768 367.337,324.498 357,321C340.719,316.429 325.118,309.166 310,300C252.29,340.768 224.143,354.427 192,360C156.686,364.166 125.31,358.638 98,338Z" style="fill:none;"/></g><g><path d="M858,595C860.214,587.692 864.01,566.656 864,560C884.758,553.971 904.078,555.042 923,562C970.136,585.069 986.371,615.898 997,646C986.16,637.349 975.452,629.626 961,629C1006.01,681.645 1023.83,733.937 1024,786C1005.39,770.227 982.947,757.97 952.033,753.49C915.593,747.983 892.493,741.488 879,736C879.728,742.8 888.153,752.456 906,764C844.64,765.693 808.599,733.145 788,687.523C799.769,679.029 810.285,670.22 816,663C820.912,675.345 828.78,683.99 839.117,689.186C848.499,693.902 859.914,695.777 873,695C872.717,688.238 870.963,681.932 868,676C890.695,694.059 915.741,704.421 945,701C925.172,668.402 905.959,646.495 887,629L912,632C900.388,608.149 882.485,594.363 858,595Z" style="fill:#fff;"/><g transform="matrix(8.76975,0,0,8.76975,-22.3155,-98.2296)"><path d="M13.719,49.743C8.386,44.97 11.271,40.56 13.491,40.392C14.722,40.299 15.259,40.814 15.658,42.217C16.11,43.807 17.596,44.455 19.193,44.611C21.63,44.85 25.208,41.819 34.701,31.498C40.071,24.85 47.284,20.582 53.743,19.753C61.34,18.778 67.045,20.545 73.356,26.367C78.132,26.461 82.45,27.815 86.355,31.384C87.407,32.755 91.103,35.008 91.373,42.331C91.635,49.458 85.371,58.348 75.751,60.233C66.169,61.956 58.976,59.701 55.796,53.848C55.042,55.195 55.256,57.187 57.962,59.777C61.21,62.443 65.605,63.434 70.049,63.426C78.638,63.129 85.896,60.378 91.145,52.023C94.917,56.737 97.975,61.789 98.975,67.813C99.471,70.799 99.462,74.024 98.784,77.565C98.086,80.573 96.665,83.506 94.109,86.004C80.96,97.251 72.987,104.716 68.225,109.835C67.291,110.717 66.22,110.687 65.374,109.949L55.91,101.283C55.171,100.55 55.131,99.538 55.91,98.889C59.005,95.397 62.561,92.235 64.348,88.512C64.471,88.255 64.386,88.163 63.886,87.852C58.05,84.227 53.77,80.183 51.463,74.829C51.082,73.965 50.246,74.075 49.638,74.601L39.49,83.381C38.403,84.3 37.339,84.283 36.297,83.381L27.175,74.943C26.081,73.61 26.136,73.011 27.403,71.75C33.36,66.648 38.597,61.428 43.367,55.444C44.449,53.905 45.024,52.325 44.963,50.541C44.931,49.602 44.431,48.203 43.253,47.804C41.396,47.283 39.617,46.455 37.893,45.409C31.313,50.058 28.103,51.616 24.438,52.251C20.411,52.726 16.833,52.096 13.719,49.743Z" style="fill:#fff;"/></g><path d="M98,338C51.228,296.15 76.53,257.473 96,256C106.793,255.183 111.506,259.701 115,272C118.963,285.949 131.996,291.631 146,293C167.372,295.089 198.757,268.514 282,178C329.101,119.702 392.351,82.27 449,75C515.619,66.45 565.649,81.943 621,133C662.881,133.828 700.747,145.701 735,177C744.22,189.023 776.637,208.78 779,273C781.3,335.505 726.371,413.468 642,430C557.972,445.108 494.892,425.331 467,374C460.392,385.82 462.27,403.287 486,426C514.482,449.384 553.025,458.071 592,458C667.318,455.393 730.968,431.268 777,358C810.085,399.337 836.897,443.641 845.674,496.478C850.023,522.664 849.943,550.945 844,582C837.872,608.38 825.411,634.093 803,656C687.683,754.638 617.764,820.105 576,865C567.806,872.729 558.418,872.469 551,866L468,790C461.522,783.568 461.173,774.696 468,769C495.146,738.378 526.331,710.644 542,678C543.082,675.747 542.333,674.934 537.951,672.212C486.766,640.417 449.237,604.958 429,558C425.659,550.423 418.326,551.389 413,556L324,633C314.47,641.065 305.14,640.916 296,633L216,559C206.405,547.313 206.893,542.058 218,531C270.244,486.253 316.173,440.476 358,388C367.495,374.5 372.533,360.648 372,345C371.72,336.768 367.337,324.498 357,321C340.719,316.429 325.118,309.166 310,300C252.29,340.768 224.143,354.427 192,360C156.686,364.166 125.31,358.638 98,338Z" style="fill:none;"/></g></g></g><defs><linearGradient id="_Linear1" x1="0" y1="0" x2="1" y2="-0.0470908" gradientUnits="userSpaceOnUse" gradientTransform="matrix(9.02308,60,-60,9.02308,27.2077,10)"><stop offset="0" style="stop-color:#f0a1ff;stop-opacity:1"/><stop offset="1" style="stop-color:#5859ff;stop-opacity:1"/></linearGradient></defs></svg>