<?xml version="1.0" encoding="UTF-8" standalone="no"?>
<!DOCTYPE svg PUBLIC "-//W3C//DTD SVG 1.1//EN" "http://www.w3.org/Graphics/SVG/1.1/DTD/svg11.dtd">
<svg width="100%" height="100%" viewBox="0 0 980 980" version="1.1" xmlns="http://www.w3.org/2000/svg" xmlns:xlink="http://www.w3.org/1999/xlink" xml:space="preserve" xmlns:serif="http://www.serif.com/" style="fill-rule:evenodd;clip-rule:evenodd;stroke-linejoin:round;stroke-miterlimit:2;">
    <g transform="matrix(1,0,0,1,-57.7184,18.1958)">
        <path d="M858,595C860.214,587.692 864.01,566.656 864,560C884.758,553.971 904.078,555.042 923,562C970.136,585.069 986.371,615.898 997,646C986.16,637.349 975.452,629.626 961,629C1006.01,681.645 1023.83,733.937 1024,786C1005.39,770.227 982.947,757.97 952.033,753.49C915.593,747.983 892.493,741.488 879,736C879.728,742.8 888.153,752.456 906,764C844.64,765.693 808.599,733.145 788,687.523C799.769,679.029 810.285,670.22 816,663C820.912,675.345 828.78,683.99 839.117,689.186C848.499,693.902 859.914,695.777 873,695C872.717,688.238 870.963,681.932 868,676C890.695,694.059 915.741,704.421 945,701C925.172,668.402 905.959,646.495 887,629L912,632C900.388,608.149 882.485,594.363 858,595Z"/>
    </g>
    <g transform="matrix(1,0,0,1,-57.7184,18.1958)">
        <path d="M98,338C51.228,296.15 76.53,257.473 96,256C106.793,255.183 111.506,259.701 115,272C118.963,285.949 131.996,291.631 146,293C167.372,295.089 198.757,268.514 282,178C329.101,119.702 392.351,82.27 449,75C515.619,66.45 565.649,81.943 621,133C662.881,133.828 700.747,145.701 735,177C744.22,189.023 776.637,208.78 779,273C781.3,335.505 726.371,413.468 642,430C557.972,445.108 494.892,425.331 467,374C460.392,385.82 462.27,403.287 486,426C514.482,449.384 553.025,458.071 592,458C667.318,455.393 730.968,431.268 777,358C810.085,399.337 836.897,443.641 845.674,496.478C850.023,522.664 849.943,550.945 844,582C837.872,608.38 825.411,634.093 803,656C687.683,754.638 617.764,820.105 576,865C567.806,872.729 558.418,872.469 551,866L468,790C461.522,783.568 461.173,774.696 468,769C495.146,738.378 526.331,710.644 542,678C543.082,675.747 542.333,674.934 537.951,672.212C486.766,640.417 449.237,604.958 429,558C425.659,550.423 418.326,551.389 413,556L324,633C314.47,641.065 305.14,640.916 296,633L216,559C206.405,547.313 206.893,542.058 218,531C270.244,486.253 316.173,440.476 358,388C367.495,374.5 372.533,360.648 372,345C371.72,336.768 367.337,324.498 357,321C340.719,316.429 325.118,309.166 310,300C252.29,340.768 224.143,354.427 192,360C156.686,364.166 125.31,358.638 98,338Z"/>
    </g>
</svg>
