<?xml version="1.0" encoding="UTF-8" standalone="no"?><!DOCTYPE svg PUBLIC "-//W3C//DTD SVG 1.1//EN" "http://www.w3.org/Graphics/SVG/1.1/DTD/svg11.dtd"><svg width="100%" height="100%" viewBox="0 0 3008 942" version="1.1" xmlns="http://www.w3.org/2000/svg" xmlns:xlink="http://www.w3.org/1999/xlink" xml:space="preserve" xmlns:serif="http://www.serif.com/" style="fill-rule:evenodd;clip-rule:evenodd;stroke-linejoin:round;stroke-miterlimit:2;"><g transform="matrix(1.00033,0,0,1,72.0239,71)"><path d="M2003.97,4.873C2003.98,4.869 2003.98,4.869 2003.97,4.873ZM2003.97,4.873L2018.97,1.897L2033.51,4.061L2047.42,11.638L2053.6,17.817L2058.6,25.531L2057.4,23.331C2059.97,27.676 2063.13,33.464 2066.82,41.132L2071.09,31.327L2082.98,19.812L2097.33,13.757L2112.38,12.991C2113.17,13.085 2113.95,13.203 2114.72,13.346L2159.02,21.502L2159.22,21.54L2175.58,28.253L2188.04,41.073L2192.07,49.211L2194.32,58.067L2194.68,67.199L2193.17,76.102L2193.6,74.387C2191.91,81.847 2189.58,91.642 2186.95,102.683C2195.98,103.985 2205.27,106.683 2214.36,111.404C2239.59,124.333 2253.06,149.41 2261.93,173.977L2261.99,174.13C2262.38,175.222 2262.89,176.527 2263.45,177.863L2271.41,177.127L2280.72,178.382L2289.18,181.433L2303.34,192.323L2308.7,200.166L2312.34,209.455L2311.47,206.625L2326.48,249.42C2326.74,250.144 2326.97,250.876 2327.18,251.614L2327.8,257.308C2335.54,263.501 2342.87,270.145 2349.77,277.216C2355.65,283.249 2361.23,289.603 2366.49,296.266C2366.63,285.024 2366.79,274.523 2366.99,264.945C2367.01,263.952 2367.07,262.96 2367.17,261.972L2372.08,244.257L2382.69,229.172L2398.94,218.107L2408.92,214.945L2419.58,213.848L2525.37,213.848L2536.23,215.036L2546.02,218.259L2561.88,229.172L2572.8,245.039L2574.84,251.231C2594.07,247.222 2617.91,243.438 2643.73,242.042C2705.32,238.712 2776.84,249.747 2828.31,296.861C2863.03,328.641 2889.76,376.902 2896.67,450.338L2896.69,450.556C2903.62,529.063 2901.38,639.126 2899.84,691.464L2899.86,690.361L2898.76,701.035L2895.56,711.084L2890.54,720.046L2884.04,727.654L2867.65,738.345L2858.14,741.216C2858.14,741.216 2848.01,742.217 2848.27,742.217L2738.71,742.972L2738.45,742.973L2727.85,741.894L2717.93,738.797L2709,733.938L2701.27,727.555L2694.89,719.824L2690.03,710.896L2686.93,700.966L2685.85,690.361C2685.85,690.133 2685.85,689.906 2685.86,689.679C2686.61,648.31 2686.61,579.864 2686.61,541.504C2686.61,521.173 2685.02,480.833 2656.1,459.025C2644.39,450.195 2628.12,445.26 2606.22,445.26C2596.15,445.26 2587.11,446.532 2579.93,448.039C2579.18,515.428 2577.22,689.265 2577.21,689.605L2576.13,700.21L2573.03,710.14L2568.17,719.068L2561.79,726.799L2554.06,733.183L2545.13,738.041L2535.21,741.138L2524.61,742.217C2524.43,742.217 2524.25,742.216 2524.07,742.214C2524.07,742.214 2420.11,740.718 2419.58,740.706L2409.45,739.705L2399.94,736.834L2383.55,726.143L2377.05,718.534L2372.03,709.573L2368.84,699.524C2368.84,699.524 2367.74,688.849 2367.74,689.623C2367.61,683.34 2367.48,675.85 2367.36,667.337C2362.77,673.073 2357.93,678.543 2352.83,683.744C2306.63,730.927 2239.03,757.153 2151.22,757.153C2063.35,757.153 1995.94,730.893 1949.92,683.68C1946.1,679.754 1942.41,675.674 1938.87,671.442C1938.88,679.287 1938.88,686.517 1938.88,693.029L1937.8,703.634L1934.7,713.564L1929.85,722.492L1923.46,730.223L1915.73,736.607L1906.81,741.465L1896.88,744.562C1896.88,744.562 1886.28,745.641 1886.59,745.64L1795.16,746.396L1794.85,746.397L1784.26,745.318L1774.33,742.221L1765.41,737.362L1762.51,734.966C1729.01,743.28 1671.12,755.464 1619.55,755.464C1532.22,755.464 1431.47,717.144 1403.73,625.036C1397.3,631.393 1390.47,637.351 1383.26,642.867L1382.97,643.089C1295.55,708.658 1195.83,699.937 1136.26,685.581L1135.77,781.588L1134.7,792.14L1131.68,801.931L1120.9,818.313L1104.78,829.689L1094.85,832.998L1083.93,834.2L991.742,834.2L972.39,830.616L963.512,826.195L955.529,820.089L948.75,812.385L943.538,803.263L940.254,793.072C940.254,793.072 939.142,782.344 939.152,783.206C938.932,773.639 938.712,762.509 938.499,750.114C934.526,748.625 930.772,746.448 927.422,743.608C913.693,731.968 897.145,722.908 874.341,719.603L874.114,719.569C869.91,718.934 865.866,718.283 861.976,717.621C855.245,725.352 845.46,730.19 834.733,730.486C769.844,732.276 726.586,704.849 698.376,662.545C617.664,733.161 565.076,783.174 531.256,819.542C530.7,820.139 530.125,820.719 529.532,821.279L512.804,832.555L502.657,835.965L491.828,837.316L481.01,836.44L470.881,833.52L454.178,823.263C453.95,823.064 453.724,822.862 453.501,822.657L370.528,746.657C370.156,746.316 369.79,745.967 369.432,745.611L358.077,729.438L354.682,719.507L353.372,708.662L354.514,697.448L358.214,686.646L364.184,677.053L371.827,669.207L367.793,673.124C385.282,653.389 404.995,635.286 420.096,615.857C386.583,591.955 359.72,565.655 340.16,535.195L276.42,590.359L276.108,590.626L259.378,601.057L248.952,604.333L237.601,605.492L226.262,604.241L215.878,600.879L199.36,590.347C199.051,590.079 198.746,589.806 198.446,589.529L118.473,515.529C117.216,514.366 116.04,513.118 114.954,511.794L103.126,492.563L100.332,482.556L99.784,470.966L101.983,459.768L105.957,450.611C108.741,445.559 113.014,439.864 119.478,433.426C120.142,432.764 120.83,432.128 121.542,431.519C171.595,388.634 215.673,344.802 255.804,294.581C258.6,290.476 260.731,286.364 261.755,281.96C254.493,279.368 247.338,276.35 240.281,272.948C187.916,308.338 158.701,320.336 126.34,325.949C125.672,326.065 125.001,326.162 124.328,326.242C78.8,331.614 38.575,323.534 3.366,296.918C2.541,296.294 1.742,295.636 0.971,294.946C-27.847,269.153 -37.016,243.099 -37.988,222.226C-38.604,208.983 -35.918,197.073 -31.356,186.988L-22.727,172.579L-11.247,160.827L3.172,152.096L21.14,147.607L34.247,147.929L44.345,150.304L60.73,159.723L71.589,172.816C73.367,175.811 75.048,179.28 76.574,183.308C80.486,180.909 88.136,176.001 94.526,170.594C114.553,153.649 141.849,125.607 181.519,82.48C235.229,16.441 307.699,-24.93 372.079,-33.195C446.117,-42.7 502.855,-27.352 563.823,25.168C609.094,28.504 650.325,43.839 688.043,78.317C689.67,79.804 691.163,81.431 692.504,83.181C703.703,97.79 741.332,122.584 744.203,200.621C744.934,220.479 741.099,241.702 733.223,262.618C733.49,262.929 733.752,263.246 734.009,263.568C771.131,309.964 800.526,360.03 810.374,419.333C811.9,428.524 812.962,437.939 813.509,447.599C830.66,446.906 847.252,449.78 863.631,455.804C864.836,456.248 866.019,456.753 867.172,457.318C901.08,473.918 922.265,493.691 936.68,514.662C936.698,496.197 936.761,477.932 936.876,460.208L936.876,460.171C937.631,359.071 937.631,302.485 937.631,273.814L940.049,258.147L946.672,244.506L956.635,233.556L969.423,225.744L969.771,225.596C1008.69,209.379 1086.53,183.421 1181.4,183.421C1240.7,183.421 1426.23,184.471 1468.96,388.536L1469,388.742C1471.52,401.125 1473.21,413.486 1474.09,425.746C1481.15,421.326 1488.53,417.333 1496.15,413.733C1513.82,405.39 1532.88,399.317 1552.12,395.006C1545.61,395.965 1539.45,397.019 1533.76,398.125L1533.32,398.209L1522.91,399.065L1512.8,397.934L1494.41,390.295L1486.52,383.956L1479.83,375.997L1474.71,366.545L1471.59,355.934C1471.54,355.636 1471.49,355.337 1471.44,355.037L1459.35,277.964L1459.63,279.508L1458.61,269.567L1459.47,259.783L1466.35,242.047C1463.29,226.679 1460.74,210.517 1458.88,194.053C1452.62,144.105 1452.44,118.545 1453.26,95.955L1453.25,98.504L1454.05,88.845L1456.81,80.029L1466.4,66.204L1479.53,57.426L1495.57,53.829C1499.24,53.686 1539.9,52.105 1540.24,52.093L1557.52,54.686L1572.65,64.002L1578.58,70.923L1580.92,75.244L1589.85,71.277C1590.29,71.173 1590.74,71.077 1591.18,70.989C1596.64,69.912 1602.34,68.808 1607.93,67.733L1607.2,59.938L1609.19,50.944L1613.03,42.566L1618.52,35.219L1625.35,29.229C1625.35,29.229 1641.43,22.157 1641.47,22.129C1641.47,22.129 1654.55,19.259 1658.47,18.401C1666.87,-10.368 1691.7,-33.096 1723.62,-37.317C1759.56,-42.069 1794.44,-19.793 1806.67,13.649L1812,12.453L1821.05,12.341L1818.52,12.195C1825.33,12.355 1834.79,12.635 1844.17,12.929L1846.27,8.91L1852.37,1.677L1859.79,-4.004L1868.21,-7.952L1877.28,-10.029L1886.55,-10.157L1924.43,-6.695L1940.32,-2.095L1952.61,7.196L1961.02,20.246L1961.35,21.863L1962.3,22.138L1964.15,20.658C1964.15,20.658 1973.11,16.342 1972.39,16.598C1972.39,16.598 2003.4,5.081 2003.97,4.873Z" style="fill:#fff;"/><path d="M873.973,742.574C873.594,742.582 872.471,742.577 870.754,742.322L873.973,742.574ZM291.463,607.753L288.27,610.145L271.54,620.576C269.892,621.604 268.121,622.418 266.268,623L255.842,626.276C254.36,626.742 252.834,627.056 251.288,627.214L239.937,628.373C238.322,628.538 236.694,628.532 235.081,628.354L223.741,627.103C222.192,626.932 220.664,626.604 219.181,626.123L208.797,622.761C206.939,622.159 205.166,621.324 203.519,620.274L187.002,609.742C186.056,609.139 185.156,608.468 184.308,607.733C183.809,607.301 183.318,606.861 182.833,606.413L102.86,532.413C100.832,530.537 98.935,528.524 97.183,526.388C96.522,525.583 95.917,524.734 95.371,523.846L83.543,504.615C82.419,502.788 81.557,500.814 80.981,498.749L78.187,488.742C77.722,487.078 77.447,485.367 77.365,483.642L76.818,472.052C76.73,470.203 76.866,468.35 77.223,466.533L79.422,455.335C79.741,453.711 80.234,452.127 80.893,450.609L84.867,441.452C85.154,440.789 85.473,440.14 85.822,439.507C89.434,432.953 94.869,425.479 103.255,417.127C104.326,416.06 105.437,415.034 106.585,414.05C140.302,385.162 171.255,355.845 200.082,324.34C173.31,338.326 152.431,344.767 130.268,348.611C129.19,348.798 128.108,348.955 127.022,349.083C75.221,355.196 29.564,345.551 -10.496,315.268C-11.827,314.261 -13.117,313.2 -14.361,312.087C-49.387,280.736 -59.774,248.667 -60.955,223.297C-61.757,206.086 -58.232,190.613 -52.303,177.506C-51.941,176.704 -51.532,175.923 -51.08,175.168L-42.451,160.76C-41.528,159.218 -40.427,157.79 -39.172,156.504L-27.691,144.752C-26.337,143.365 -24.812,142.156 -23.153,141.151L-8.734,132.42C-6.766,131.229 -4.631,130.339 -2.399,129.782L15.568,125.292C17.574,124.791 19.637,124.563 21.704,124.614L34.812,124.936C36.395,124.975 37.97,125.177 39.511,125.54L49.609,127.915C51.781,128.426 53.867,129.251 55.801,130.363L72.186,139.782C74.562,141.148 76.675,142.927 78.425,145.037L82.819,150.335C101.988,133.629 127.665,107.048 164.126,67.422C221.901,-3.349 300.024,-47.133 369.152,-56.008C447.782,-66.103 508.585,-50.623 573.097,2.894C620.441,7.716 663.749,24.954 703.553,61.338C706.178,63.737 708.586,66.363 710.749,69.185C723.166,85.382 763.997,113.258 767.18,199.775C767.87,218.533 765.082,238.369 759.019,258.184C795.222,305.186 823.182,356.105 833.055,415.564C833.594,418.807 834.079,422.075 834.509,425.37C847.032,426.743 859.351,429.724 871.566,434.217C873.511,434.933 875.418,435.748 877.28,436.659C891.323,443.534 903.412,450.918 913.894,458.681C914.638,358.5 914.638,302.333 914.638,273.814C914.638,272.639 914.728,271.466 914.908,270.304L917.327,254.637C917.677,252.368 918.365,250.165 919.367,248.1L925.99,234.458C926.95,232.48 928.189,230.65 929.669,229.024L939.631,218.075C941.099,216.461 944.789,213.065 949.649,209.928L961.399,204.17C972.038,211.853 971.16,222.852 967.851,226.704C961.82,231.782 954.639,237.817 946.672,244.506L940.049,258.147L937.631,273.814C937.631,302.485 937.631,359.071 936.876,460.171L936.876,460.208C936.827,467.736 936.788,475.362 936.757,483.06L936.721,483.015C926.478,484.337 920.884,482.734 916.909,477.113C914.611,473.864 911.622,465.858 913.884,460L913.884,460.058C913.884,460.058 923.384,459.44 928.062,463.265C936.207,469.927 935.451,482.01 936.757,483.159C936.715,493.551 936.69,504.074 936.68,514.662C922.265,493.691 901.08,473.918 867.172,457.318C866.019,456.753 864.836,456.248 863.631,455.804C847.252,449.78 830.66,446.906 813.509,447.599C812.962,437.939 811.9,428.524 810.374,419.333C800.526,360.03 771.131,309.964 734.009,263.568C733.752,263.246 733.49,262.929 733.223,262.618C741.099,241.702 744.934,220.479 744.203,200.621C741.332,122.584 703.703,97.79 692.504,83.181C691.163,81.431 689.67,79.804 688.043,78.317C650.325,43.839 609.094,28.504 563.823,25.168C502.855,-27.352 446.117,-42.7 372.079,-33.195C307.699,-24.93 235.229,16.441 181.519,82.48C141.849,125.607 114.553,153.649 94.526,170.594C88.136,176.001 80.486,180.909 76.574,183.308C75.048,179.28 73.367,175.811 71.589,172.816L60.73,159.723L44.345,150.304L34.247,147.929L21.14,147.607L3.172,152.096L-11.247,160.827L-22.727,172.579L-31.356,186.988C-35.918,197.073 -38.604,208.983 -37.988,222.226C-37.016,243.099 -27.847,269.153 0.971,294.946C1.742,295.636 2.541,296.294 3.366,296.918C38.575,323.534 78.8,331.614 124.328,326.242C125.001,326.162 125.672,326.065 126.34,325.949C158.701,320.336 187.916,308.338 240.281,272.948C247.338,276.35 254.493,279.368 261.755,281.96C260.731,286.364 258.6,290.476 255.804,294.581C215.673,344.802 171.595,388.634 121.542,431.519C120.83,432.128 120.142,432.764 119.478,433.426C113.014,439.864 108.741,445.559 105.957,450.611L101.983,459.768L99.784,470.966L100.332,482.556L103.126,492.563L114.954,511.794C116.04,513.118 117.216,514.366 118.473,515.529L198.446,589.529C198.746,589.806 199.051,590.079 199.36,590.347L215.878,600.879L226.262,604.241L237.601,605.492L248.952,604.333L259.378,601.057L270.525,594.107L275.998,613.088C275.543,610.889 267.855,604.828 270.525,594.107L276.108,590.626L276.42,590.359L340.16,535.195C359.72,565.655 386.583,591.955 420.096,615.857C404.995,635.286 385.282,653.389 367.793,673.124L371.827,669.207L364.184,677.053L358.214,686.646L354.514,697.448L353.372,708.662L354.682,719.507L358.077,729.438L369.432,745.611C369.79,745.967 370.156,746.316 370.528,746.657L453.501,822.657C453.724,822.862 453.95,823.064 454.178,823.263L470.881,833.52L481.01,836.44L491.828,837.316L502.657,835.965L512.804,832.555L529.532,821.279C530.125,820.719 530.7,820.139 531.256,819.542C565.076,783.174 617.664,733.161 698.376,662.545C726.586,704.849 769.844,732.276 834.733,730.486C845.46,730.19 855.245,725.352 861.976,717.621C865.866,718.283 869.91,718.934 874.114,719.569L874.341,719.603C874.866,719.679 875.387,719.758 875.905,719.84L874.341,742.603L873.973,742.574C874.066,742.572 874.114,742.569 874.114,742.569L870.678,742.311L869.08,742.067C859.474,749.001 847.813,753.134 835.367,753.477C772.225,755.219 727.065,732.601 695.082,696.057C625.515,757.485 578.915,802.061 548.09,835.208C547.194,836.172 546.266,837.106 545.308,838.01C544.398,838.869 543.419,839.652 542.381,840.352L525.653,851.628C523.942,852.782 522.082,853.7 520.126,854.358L509.978,857.768C508.524,858.257 507.024,858.599 505.501,858.788L494.673,860.139C493.114,860.333 491.539,860.367 489.973,860.241L479.155,859.365C477.627,859.241 476.115,858.965 474.642,858.54L464.514,855.62C462.523,855.046 460.619,854.205 458.853,853.121L442.15,842.864C441.061,842.196 440.029,841.437 439.066,840.597C438.698,840.276 438.334,839.95 437.973,839.62L355.001,763.62C354.4,763.07 353.81,762.507 353.232,761.933C352.27,760.978 351.395,759.939 350.616,758.83L339.261,742.656C338.014,740.88 337.025,738.935 336.322,736.881L332.927,726.951C332.407,725.431 332.048,723.861 331.856,722.266L330.545,711.421C330.341,709.731 330.325,708.023 330.498,706.33L331.64,695.116C331.818,693.371 332.195,691.652 332.763,689.993L336.463,679.191C337.027,677.545 337.776,675.968 338.695,674.491L344.665,664.898C345.539,663.493 346.563,662.186 347.717,661.001L349.563,659.106C349.888,658.684 350.229,658.271 350.588,657.866C362.334,644.612 375.128,632.129 386.782,619.458C367.368,603.8 350.464,587.113 336.161,569.069L291.463,607.753L291.359,607.843C286.732,610.813 281.679,612.81 276.108,613.626C276.108,613.626 286.119,611.102 291.463,607.753ZM967.851,226.704C967.718,226.11 962.106,223.899 960.472,218.659C958.715,213.028 960.931,204.364 960.931,204.364C1001.48,187.47 1082.57,160.421 1181.4,160.421C1230.3,160.421 1357.93,161.94 1436.33,260.425L1436.57,257.764C1436.76,255.605 1437.25,253.484 1438.04,251.463L1442.52,239.905C1439.91,225.98 1437.72,211.497 1436.04,196.78C1429.58,145.041 1429.43,118.542 1430.28,95.122C1430.33,93.72 1430.51,92.351 1430.8,91.026L1431.13,86.966C1431.27,85.27 1431.6,83.595 1432.11,81.971L1434.87,73.155C1435.56,70.931 1436.59,68.826 1437.92,66.912L1447.52,53.087C1449.16,50.719 1451.23,48.682 1453.63,47.08L1466.76,38.302C1469.11,36.729 1471.74,35.604 1474.5,34.984L1490.54,31.387C1491.89,31.082 1493.28,30.901 1494.67,30.847C1498.36,30.704 1539.12,29.118 1539.45,29.107C1540.85,29.059 1542.26,29.139 1543.65,29.348L1560.93,31.94C1563.99,32.4 1566.93,33.474 1569.57,35.099L1584.7,44.415C1585.42,44.856 1586.11,45.336 1586.77,45.851C1587.12,44.306 1587.63,42.8 1588.29,41.359L1592.13,32.981C1592.81,31.505 1593.64,30.104 1594.61,28.802L1600.1,21.455C1601.06,20.166 1602.15,18.981 1603.36,17.92L1610.2,11.93C1611.96,10.384 1613.95,9.117 1616.1,8.173L1631.7,1.303L1631.67,1.325C1633.22,0.592 1634.86,0.033 1636.54,-0.337L1641.35,-1.391C1655.29,-32.119 1684.41,-55.333 1720.61,-60.118C1760.94,-65.452 1800.32,-44.608 1820.42,-10.766C1823.95,-10.679 1828.09,-10.565 1832.5,-10.436L1834.8,-13.156C1835.87,-14.429 1837.08,-15.582 1838.4,-16.593L1845.83,-22.273C1847.13,-23.274 1848.55,-24.13 1850.04,-24.829L1858.45,-28.777C1859.93,-29.471 1861.49,-30.006 1863.08,-30.371L1872.14,-32.448C1873.72,-32.81 1875.34,-33.004 1876.96,-33.027L1886.23,-33.155C1887.04,-33.166 1887.84,-33.135 1888.64,-33.062L1926.52,-29.599C1927.98,-29.466 1929.41,-29.195 1930.82,-28.788L1946.71,-24.189C1949.4,-23.408 1951.93,-22.14 1954.17,-20.448L1966.47,-11.157C1967.98,-10.019 1969.33,-8.702 1970.51,-7.238C1978.93,-10.364 1996.63,-16.924 1996.87,-17.003C1997.73,-17.283 1998.61,-17.511 1999.5,-17.687L2014.5,-20.663C2017.08,-21.177 2019.74,-21.241 2022.35,-20.853L2036.89,-18.689C2039.56,-18.292 2042.14,-17.429 2044.51,-16.138L2058.42,-8.56C2060.35,-7.509 2062.12,-6.186 2063.67,-4.632L2069.49,1.185C2070.9,0.161 2072.43,-0.7 2074.04,-1.381L2088.4,-7.436C2090.86,-8.476 2093.49,-9.077 2096.16,-9.213L2111.21,-9.979C2112.51,-10.046 2113.82,-10.001 2115.11,-9.847C2116.37,-9.696 2117.63,-9.505 2118.89,-9.274L2163.18,-1.118L2163.25,-1.106C2164.89,-0.798 2166.46,-0.322 2167.95,0.303L2167.95,0.262L2184.31,6.974C2187.22,8.171 2189.86,9.955 2192.06,12.215L2204.53,25.036C2206.2,26.754 2207.59,28.724 2208.65,30.873L2212.68,39.011C2213.39,40.457 2213.95,41.974 2214.35,43.538L2216.6,52.393C2217,53.957 2217.23,55.557 2217.3,57.169L2217.65,66.302C2217.72,67.891 2217.61,69.482 2217.35,71.05L2216.56,75.697C2216.48,76.95 2216.31,78.214 2216.02,79.478C2215.55,81.561 2215.03,83.824 2214.46,86.245C2217.95,87.602 2221.44,89.169 2224.9,90.965C2251.66,104.698 2268.24,129.121 2279.18,154.967L2283.79,155.588C2285.4,155.806 2286.99,156.194 2288.52,156.747L2296.98,159.798C2299.21,160.603 2301.31,161.751 2303.19,163.198L2317.35,174.088C2319.27,175.567 2320.95,177.341 2322.32,179.344L2327.68,187.186C2328.66,188.615 2329.47,190.149 2330.1,191.759L2331.48,195.287C2332.14,196.457 2332.71,197.701 2333.17,199.012L2348.18,241.806C2348.32,242.195 2348.45,242.585 2348.58,242.976L2349.93,238.104C2350.63,235.571 2351.76,233.177 2353.28,231.027L2363.88,215.942C2365.47,213.675 2367.46,211.715 2369.75,210.156L2386.01,199.092C2387.85,197.836 2389.87,196.855 2392,196.181L2401.98,193.019C2403.47,192.545 2405.01,192.226 2406.57,192.065L2417.23,190.969C2418.01,190.888 2418.79,190.848 2419.58,190.848L2525.37,190.848C2526.2,190.848 2527.03,190.894 2527.86,190.984L2538.73,192.173C2540.33,192.347 2541.9,192.688 2543.42,193.19L2553.21,196.412C2555.28,197.095 2557.25,198.07 2559.05,199.308L2574.91,210.221C2577.22,211.814 2579.23,213.818 2580.82,216.133L2587.23,225.451C2603.8,222.574 2622.59,220.152 2642.49,219.075C2709.76,215.438 2787.61,228.428 2843.83,279.892C2881.97,314.799 2911.97,367.52 2919.56,448.182L2919.57,448.255L2919.59,448.535L2919.59,448.534C2926.6,527.92 2924.38,639.216 2922.82,692.14C2922.79,693.44 2922.64,694.712 2922.4,695.948L2921.63,703.393C2921.47,704.962 2921.14,706.511 2920.67,708.014L2917.47,718.063C2917,719.542 2916.38,720.969 2915.62,722.323L2910.6,731.284C2909.87,732.6 2909,733.84 2908.02,734.986L2901.52,742.595C2900.1,744.265 2898.44,745.721 2896.6,746.92L2880.21,757.611C2878.38,758.806 2876.39,759.733 2874.29,760.365L2864.78,763.236C2863.35,763.667 2861.88,763.958 2860.4,764.104L2851.24,765.026C2850.32,765.145 2849.38,765.209 2848.43,765.216L2848.35,765.216L2738.87,765.972L2738.45,765.973C2737.67,765.973 2736.89,765.934 2736.12,765.855L2725.52,764.775C2723.99,764.619 2722.48,764.309 2721.01,763.85L2711.08,760.753C2709.64,760.305 2708.26,759.718 2706.94,758.999L2698.01,754.141C2696.72,753.437 2695.5,752.612 2694.36,751.675L2686.64,745.291C2685.51,744.362 2684.48,743.328 2683.55,742.203L2677.16,734.473C2676.23,733.338 2675.4,732.116 2674.7,730.824L2669.84,721.895C2669.12,720.574 2668.53,719.185 2668.08,717.749L2664.98,707.819C2664.52,706.346 2664.21,704.831 2664.05,703.297L2662.97,692.692C2662.9,691.917 2662.86,691.139 2662.86,690.361C2662.86,689.994 2662.86,689.627 2662.87,689.261C2663.62,648.009 2663.61,579.756 2663.61,541.504C2663.61,525.882 2664.48,494.149 2642.26,477.391C2633.84,471.047 2621.95,468.26 2606.22,468.26C2605.03,468.26 2603.85,468.282 2602.7,468.324C2601.84,544.917 2600.2,689.684 2600.2,689.994C2600.19,690.643 2600.15,691.291 2600.08,691.936L2599,702.541C2598.85,704.076 2598.54,705.591 2598.08,707.063L2594.98,716.994C2594.53,718.43 2593.94,719.818 2593.22,721.14L2588.36,730.068C2587.66,731.36 2586.83,732.582 2585.9,733.717L2579.51,741.448C2578.58,742.573 2577.55,743.607 2576.42,744.536L2568.7,750.919C2567.56,751.856 2566.34,752.682 2565.05,753.385L2556.12,758.243C2554.8,758.962 2553.41,759.55 2551.98,759.998L2542.05,763.095C2540.58,763.554 2539.07,763.864 2537.54,764.02L2526.94,765.099C2526.16,765.178 2525.39,765.217 2524.61,765.217C2524.32,765.217 2524.03,765.215 2523.74,765.211C2523.74,765.211 2419.62,763.712 2419.09,763.701C2418.49,763.688 2417.91,763.653 2417.32,763.595L2407.19,762.593C2405.71,762.446 2404.24,762.156 2402.82,761.725L2393.3,758.854C2391.21,758.222 2389.21,757.295 2387.38,756.1L2370.99,745.409C2369.15,744.21 2367.5,742.753 2366.07,741.084L2359.57,733.475C2358.59,732.329 2357.73,731.089 2356.99,729.773L2351.97,720.812C2351.33,719.658 2350.78,718.451 2350.34,717.205C2301.49,757.5 2234.95,780.153 2151.22,780.153C2069.84,780.153 2004.88,758.758 1956.6,720.591C1956.16,721.966 1955.59,723.296 1954.9,724.564L1950.04,733.492C1949.33,734.785 1948.51,736.007 1947.57,737.141L1941.19,744.872C1940.26,745.997 1939.22,747.031 1938.1,747.96L1930.37,754.343C1929.23,755.28 1928.01,756.106 1926.72,756.809L1917.8,761.668C1916.48,762.386 1915.09,762.974 1913.65,763.422L1903.73,766.519C1902.26,766.978 1900.74,767.288 1899.21,767.444L1889.71,768.431C1888.75,768.56 1887.77,768.631 1886.78,768.639L1886.69,768.64L1795.35,769.395L1794.85,769.397C1794.08,769.397 1793.3,769.358 1792.53,769.279L1781.93,768.2C1780.39,768.043 1778.88,767.733 1777.41,767.274L1767.49,764.177C1766.05,763.729 1764.66,763.142 1763.34,762.423L1758.26,759.656C1722.69,768.04 1668.38,778.464 1619.55,778.464C1533.35,778.464 1436.43,743.005 1394.55,663.138C1313.58,722.672 1223.28,724.242 1159.11,713.664L1158.76,781.706C1158.76,782.44 1158.72,783.174 1158.65,783.904L1157.58,794.456C1157.43,795.969 1157.12,797.464 1156.67,798.918L1153.66,808.709C1153.02,810.787 1152.08,812.763 1150.89,814.579L1140.11,830.961C1138.53,833.365 1136.51,835.45 1134.15,837.109L1118.03,848.485C1116.19,849.78 1114.18,850.799 1112.05,851.51L1102.12,854.819C1100.57,855.333 1098.98,855.682 1097.36,855.86L1086.44,857.062C1085.61,857.154 1084.77,857.2 1083.93,857.2L991.742,857.2C990.338,857.2 988.937,857.072 987.556,856.816L968.204,853.232C966.099,852.842 964.059,852.16 962.143,851.206L953.265,846.784C951.955,846.132 950.71,845.356 949.548,844.467L941.564,838.361C940.368,837.446 939.264,836.416 938.269,835.285L931.49,827.58C930.464,826.414 929.559,825.146 928.788,823.797L923.576,814.675C922.787,813.294 922.143,811.834 921.655,810.32L918.371,800.129C917.88,798.606 917.55,797.036 917.385,795.445L916.476,787.029C916.297,785.955 916.191,784.855 916.166,783.735C916.026,777.654 915.886,770.944 915.748,763.681C914.661,762.878 913.597,762.036 912.556,761.154C901.818,752.05 888.881,744.951 871.044,742.365C872.136,742.523 870.033,728.831 873.122,719.419C890.145,714.924 919.62,734.146 929.421,741.608C932.916,744.268 934.526,748.625 938.499,750.114C938.712,762.509 938.932,773.639 939.152,783.206C939.142,782.344 940.254,793.072 940.254,793.072L943.538,803.263L948.75,812.385L955.529,820.089L963.512,826.195L972.39,830.616L991.742,834.2L1083.93,834.2L1094.85,832.998L1104.78,829.689L1120.9,818.313L1131.68,801.931L1134.7,792.14L1135.77,781.588L1136.26,685.581C1194.43,699.6 1290.89,708.246 1376.8,647.578L1382.79,665.536C1382.79,665.536 1375.87,659.407 1376.8,647.578C1378.15,646.603 1381.62,644.099 1382.97,643.089L1383.26,642.867C1390.47,637.351 1397.3,631.393 1403.73,625.036C1431.47,717.144 1532.22,755.464 1619.55,755.464C1671.12,755.464 1729.01,743.28 1762.51,734.966L1765.41,737.362L1774.33,742.221L1784.26,745.318L1794.85,746.397L1795.16,746.396L1886.59,745.64C1886.28,745.641 1896.88,744.562 1896.88,744.562L1906.81,741.465L1915.73,736.607L1923.46,730.223L1929.85,722.492L1934.7,713.564L1937.8,703.634L1938.88,693.029C1938.88,686.517 1938.88,679.287 1938.87,671.442C1942.41,675.674 1946.1,679.754 1949.92,683.68C1995.94,730.893 2063.35,757.153 2151.22,757.153C2239.03,757.153 2306.63,730.927 2352.83,683.744C2357.93,678.543 2362.77,673.073 2367.36,667.337C2367.48,675.85 2367.61,683.34 2367.74,689.623C2367.74,688.849 2368.84,699.524 2368.84,699.524L2372.03,709.573L2377.05,718.534L2383.55,726.143L2399.94,736.834L2409.45,739.705L2419.58,740.706C2420.11,740.718 2524.07,742.214 2524.07,742.214C2524.25,742.216 2524.43,742.217 2524.61,742.217L2535.21,741.138L2545.13,738.041L2554.06,733.183L2561.79,726.799L2568.17,719.068L2573.03,710.14L2576.13,700.21L2577.21,689.605C2577.22,689.265 2579.18,515.428 2579.93,448.039C2587.11,446.532 2596.15,445.26 2606.22,445.26C2628.12,445.26 2644.39,450.195 2656.1,459.025C2685.02,480.833 2686.61,521.173 2686.61,541.504C2686.61,579.864 2686.61,648.31 2685.86,689.679C2685.85,689.906 2685.85,690.133 2685.85,690.361L2686.93,700.966L2690.03,710.896L2694.89,719.824L2701.27,727.555L2709,733.938L2717.93,738.797L2727.85,741.894L2738.45,742.973L2738.71,742.972L2848.27,742.217C2848.01,742.217 2858.14,741.216 2858.14,741.216L2867.65,738.345L2884.04,727.654L2890.54,720.046L2895.56,711.084L2898.76,701.035L2899.86,690.361L2899.84,691.464C2901.38,639.126 2903.62,529.063 2896.69,450.556L2896.67,450.338C2889.76,376.902 2863.03,328.641 2828.31,296.861C2776.84,249.747 2705.32,238.712 2643.73,242.042C2617.91,243.438 2594.07,247.222 2574.84,251.231L2572.8,245.039L2561.88,229.172L2546.02,218.259L2536.23,215.036L2525.37,213.848L2419.58,213.848L2408.92,214.945L2398.94,218.107L2382.69,229.172L2372.08,244.257L2367.17,261.972C2367.07,262.96 2367.01,263.952 2366.99,264.945C2366.79,274.523 2366.63,285.024 2366.49,296.266C2361.23,289.603 2355.65,283.249 2349.77,277.216C2342.87,270.145 2335.54,263.501 2327.8,257.308L2327.18,251.614C2326.97,250.876 2326.74,250.144 2326.48,249.42L2311.47,206.625L2312.34,209.455L2308.7,200.166L2303.34,192.323L2289.18,181.433L2280.72,178.382L2271.41,177.127L2263.45,177.863C2262.89,176.527 2262.38,175.222 2261.99,174.13L2261.93,173.977C2253.06,149.41 2239.59,124.333 2214.36,111.404C2205.27,106.683 2195.98,103.985 2186.95,102.683C2189.58,91.642 2191.91,81.847 2193.6,74.387L2193.17,76.102L2194.68,67.199L2194.32,58.067L2192.07,49.211L2188.04,41.073L2175.58,28.253L2159.22,21.54L2159.02,21.502L2114.72,13.346C2113.95,13.203 2113.17,13.085 2112.38,12.991L2097.33,13.757L2082.98,19.812L2071.09,31.327L2066.82,41.132C2063.13,33.464 2059.97,27.676 2057.4,23.331L2058.6,25.531L2053.6,17.817L2047.42,11.638L2033.51,4.061L2018.97,1.897L2004.16,4.835L1972.39,16.598C1973.11,16.342 1964.15,20.658 1964.15,20.658L1962.3,22.138L1961.35,21.863L1961.02,20.246L1952.61,7.196L1940.32,-2.095L1924.43,-6.695L1886.55,-10.157L1877.28,-10.029L1868.21,-7.952L1859.79,-4.004L1852.37,1.677L1846.27,8.91L1844.17,12.929C1834.79,12.635 1825.33,12.355 1818.52,12.195L1821.05,12.341L1812,12.453L1806.67,13.649C1794.44,-19.793 1759.56,-42.069 1723.62,-37.317C1691.7,-33.096 1666.87,-10.368 1658.47,18.401C1654.55,19.259 1641.47,22.129 1641.47,22.129C1641.43,22.157 1625.35,29.229 1625.35,29.229L1618.52,35.219L1613.03,42.566L1609.19,50.944L1607.2,59.938L1607.93,67.733C1602.34,68.808 1596.64,69.912 1591.18,70.989C1590.74,71.077 1590.29,71.173 1589.85,71.277L1580.92,75.244L1578.58,70.923L1572.65,64.002L1557.52,54.686L1540.24,52.093C1539.9,52.105 1499.24,53.686 1495.57,53.829L1479.53,57.426L1466.4,66.204L1456.81,80.029L1454.05,88.845L1453.25,98.504L1453.26,95.955C1452.44,118.545 1452.62,144.105 1458.88,194.053C1460.74,210.517 1463.29,226.679 1466.35,242.047L1459.47,259.783L1458.61,269.567L1459.63,279.508L1459.35,277.964L1471.44,355.037C1471.49,355.337 1471.54,355.636 1471.59,355.934L1474.71,366.545L1479.83,375.997L1486.52,383.956L1494.41,390.295L1512.8,397.934L1522.91,399.065L1533.32,398.209L1533.76,398.125C1539.45,397.019 1545.61,395.965 1552.12,395.006C1532.88,399.317 1513.82,405.39 1496.15,413.733C1488.53,417.333 1481.15,421.326 1474.09,425.746C1473.21,413.486 1471.52,401.125 1469,388.742L1468.96,388.536C1426.23,184.471 1240.7,183.421 1181.4,183.421C1086.53,183.421 1008.69,209.379 969.771,225.596L969.423,225.744L967.851,226.704Z" style="fill:#5859ff;fill-rule:nonzero;"/><path d="M2003.97,4.873C2003.98,4.869 2003.98,4.869 2003.97,4.873ZM2003.97,4.873L2018.97,1.897L2033.51,4.061L2047.42,11.638L2053.6,17.817L2058.6,25.531L2057.4,23.331C2059.97,27.676 2063.13,33.464 2066.82,41.132L2071.09,31.327L2082.98,19.812L2097.33,13.757L2112.38,12.991C2113.17,13.085 2113.95,13.203 2114.72,13.346L2159.02,21.502L2159.22,21.54L2175.58,28.253L2188.04,41.073L2192.07,49.211L2194.32,58.067L2194.68,67.199L2193.17,76.102L2193.6,74.387C2191.91,81.847 2189.58,91.642 2186.95,102.683C2195.98,103.985 2205.27,106.683 2214.36,111.404C2239.59,124.333 2253.06,149.41 2261.93,173.977L2261.99,174.13C2262.38,175.222 2262.89,176.527 2263.45,177.863L2271.41,177.127L2280.72,178.382L2289.18,181.433L2303.34,192.323L2308.7,200.166L2312.34,209.455L2311.47,206.625L2326.48,249.42C2326.74,250.144 2326.97,250.876 2327.18,251.614L2327.8,257.308C2335.54,263.501 2342.87,270.145 2349.77,277.216C2355.65,283.249 2361.23,289.603 2366.49,296.266C2366.63,285.024 2366.79,274.523 2366.99,264.945C2367.01,263.952 2367.07,262.96 2367.17,261.972L2372.08,244.257L2382.69,229.172L2398.94,218.107L2408.92,214.945L2419.58,213.848L2525.37,213.848L2536.23,215.036L2546.02,218.259L2561.88,229.172L2572.8,245.039L2574.84,251.231C2594.07,247.222 2617.91,243.438 2643.73,242.042C2705.32,238.712 2776.84,249.747 2828.31,296.861C2863.03,328.641 2889.76,376.902 2896.67,450.338L2896.69,450.556C2903.62,529.063 2901.38,639.126 2899.84,691.464L2899.86,690.361L2898.76,701.035L2895.56,711.084L2890.54,720.046L2884.04,727.654L2867.65,738.345L2858.14,741.216C2858.14,741.216 2848.01,742.217 2848.27,742.217L2738.71,742.972L2738.45,742.973L2727.85,741.894L2717.93,738.797L2709,733.938L2701.27,727.555L2694.89,719.824L2690.03,710.896L2686.93,700.966L2685.85,690.361C2685.85,690.133 2685.85,689.906 2685.86,689.679C2686.61,648.31 2686.61,579.864 2686.61,541.504C2686.61,521.173 2685.02,480.833 2656.1,459.025C2644.39,450.195 2628.12,445.26 2606.22,445.26C2596.15,445.26 2587.11,446.532 2579.93,448.039C2579.18,515.428 2577.22,689.265 2577.21,689.605L2576.13,700.21L2573.03,710.14L2568.17,719.068L2561.79,726.799L2554.06,733.183L2545.13,738.041L2535.21,741.138L2524.61,742.217C2524.43,742.217 2524.25,742.216 2524.07,742.214C2524.07,742.214 2420.11,740.718 2419.58,740.706L2409.45,739.705L2399.94,736.834L2383.55,726.143L2377.05,718.534L2372.03,709.573L2368.84,699.524C2368.84,699.524 2367.74,688.849 2367.74,689.623C2367.61,683.34 2367.48,675.85 2367.36,667.337C2362.77,673.073 2357.93,678.543 2352.83,683.744C2306.63,730.927 2239.03,757.153 2151.22,757.153C2063.35,757.153 1995.94,730.893 1949.92,683.68C1946.1,679.754 1942.41,675.674 1938.87,671.442C1938.88,679.287 1938.88,686.517 1938.88,693.029L1937.8,703.634L1934.7,713.564L1929.85,722.492L1923.46,730.223L1915.73,736.607L1906.81,741.465L1896.88,744.562C1896.88,744.562 1886.28,745.641 1886.59,745.64L1795.16,746.396L1794.85,746.397L1784.26,745.318L1774.33,742.221L1765.41,737.362L1762.51,734.966C1729.01,743.28 1671.12,755.464 1619.55,755.464C1532.22,755.464 1431.47,717.144 1403.73,625.036C1397.3,631.393 1390.47,637.351 1383.26,642.867L1382.97,643.089C1295.55,708.658 1195.83,699.937 1136.26,685.581L1135.77,781.588L1134.7,792.14L1131.68,801.931L1120.9,818.313L1104.78,829.689L1094.85,832.998L1083.93,834.2L991.742,834.2L972.39,830.616L963.512,826.195L955.529,820.089L948.75,812.385L943.538,803.263L940.254,793.072C940.254,793.072 939.142,782.344 939.152,783.206C938.932,773.639 938.712,762.509 938.499,750.114C934.526,748.625 930.772,746.448 927.422,743.608C913.693,731.968 897.145,722.908 874.341,719.603L874.114,719.569C869.91,718.934 865.866,718.283 861.976,717.621C855.245,725.352 845.46,730.19 834.733,730.486C769.844,732.276 726.586,704.849 698.376,662.545C617.664,733.161 565.076,783.174 531.256,819.542C530.7,820.139 530.125,820.719 529.532,821.279L512.804,832.555L502.657,835.965L491.828,837.316L481.01,836.44L470.881,833.52L454.178,823.263C453.95,823.064 453.724,822.862 453.501,822.657L370.528,746.657C370.156,746.316 369.79,745.967 369.432,745.611L358.077,729.438L354.682,719.507L353.372,708.662L354.514,697.448L358.214,686.646L364.184,677.053L371.827,669.207L367.793,673.124C385.282,653.389 404.995,635.286 420.096,615.857C386.583,591.955 359.72,565.655 340.16,535.195L276.42,590.359L276.108,590.626L259.378,601.057L248.952,604.333L237.601,605.492L226.262,604.241L215.878,600.879L199.36,590.347C199.051,590.079 198.746,589.806 198.446,589.529L118.473,515.529C117.216,514.366 116.04,513.118 114.954,511.794L103.126,492.563L100.332,482.556L99.784,470.966L101.983,459.768L105.957,450.611C108.741,445.559 113.014,439.864 119.478,433.426C120.142,432.764 120.83,432.128 121.542,431.519C171.595,388.634 215.673,344.802 255.804,294.581C258.6,290.476 260.731,286.364 261.755,281.96C254.493,279.368 247.338,276.35 240.281,272.948C187.916,308.338 158.701,320.336 126.34,325.949C125.672,326.065 125.001,326.162 124.328,326.242C78.8,331.614 38.575,323.534 3.366,296.918C2.541,296.294 1.742,295.636 0.971,294.946C-27.847,269.153 -37.016,243.099 -37.988,222.226C-38.604,208.983 -35.918,197.073 -31.356,186.988L-22.727,172.579L-11.247,160.827L3.172,152.096L21.14,147.607L34.247,147.929L44.345,150.304L60.73,159.723L71.589,172.816C73.367,175.811 75.048,179.28 76.574,183.308C80.486,180.909 88.136,176.001 94.526,170.594C114.553,153.649 141.849,125.607 181.519,82.48C235.229,16.441 307.699,-24.93 372.079,-33.195C446.117,-42.7 502.855,-27.352 563.823,25.168C609.094,28.504 650.325,43.839 688.043,78.317C689.67,79.804 691.163,81.431 692.504,83.181C703.703,97.79 741.332,122.584 744.203,200.621C744.934,220.479 741.099,241.702 733.223,262.618C733.49,262.929 733.752,263.246 734.009,263.568C771.131,309.964 800.526,360.03 810.374,419.333C811.9,428.524 812.962,437.939 813.509,447.599C830.66,446.906 847.252,449.78 863.631,455.804C864.836,456.248 866.019,456.753 867.172,457.318C901.08,473.918 922.265,493.691 936.68,514.662C936.698,496.197 936.761,477.932 936.876,460.208L936.876,460.171C937.631,359.071 937.631,302.485 937.631,273.814L940.049,258.147L946.672,244.506L956.635,233.556L969.423,225.744L969.771,225.596C1008.69,209.379 1086.53,183.421 1181.4,183.421C1240.7,183.421 1426.23,184.471 1468.96,388.536L1469,388.742C1471.52,401.125 1473.21,413.486 1474.09,425.746C1481.15,421.326 1488.53,417.333 1496.15,413.733C1513.82,405.39 1532.88,399.317 1552.12,395.006C1545.61,395.965 1539.45,397.019 1533.76,398.125L1533.32,398.209L1522.91,399.065L1512.8,397.934L1494.41,390.295L1486.52,383.956L1479.83,375.997L1474.71,366.545L1471.59,355.934C1471.54,355.636 1471.49,355.337 1471.44,355.037L1459.35,277.964L1459.63,279.508L1458.61,269.567L1459.47,259.783L1466.35,242.047C1463.29,226.679 1460.74,210.517 1458.88,194.053C1452.62,144.105 1452.44,118.545 1453.26,95.955L1453.25,98.504L1454.05,88.845L1456.81,80.029L1466.4,66.204L1479.53,57.426L1495.57,53.829C1499.24,53.686 1539.9,52.105 1540.24,52.093L1557.52,54.686L1572.65,64.002L1578.58,70.923L1580.92,75.244L1589.85,71.277C1590.29,71.173 1590.74,71.077 1591.18,70.989C1596.64,69.912 1602.34,68.808 1607.93,67.733L1607.2,59.938L1609.19,50.944L1613.03,42.566L1618.52,35.219L1625.35,29.229C1625.35,29.229 1641.43,22.157 1641.47,22.129C1641.47,22.129 1654.55,19.259 1658.47,18.401C1666.87,-10.368 1691.7,-33.096 1723.62,-37.317C1759.56,-42.069 1794.44,-19.793 1806.67,13.649L1812,12.453L1821.05,12.341L1818.52,12.195C1825.33,12.355 1834.79,12.635 1844.17,12.929L1846.27,8.91L1852.37,1.677L1859.79,-4.004L1868.21,-7.952L1877.28,-10.029L1886.55,-10.157L1924.43,-6.695L1940.32,-2.095L1952.61,7.196L1961.02,20.246L1961.35,21.863L1962.3,22.138L1964.15,20.658C1964.15,20.658 1973.11,16.342 1972.39,16.598C1972.39,16.598 2003.4,5.081 2003.97,4.873Z" style="fill:#fff;"/><g><g transform="matrix(0.73646,0.676481,-0.676481,0.73646,409.558,-370.907)"><g transform="matrix(0.736215,-0.676256,0.676481,0.73646,-151.766,546.635)"><path d="M858,595C860.214,587.692 864.01,566.656 864,560C884.758,553.971 904.078,555.042 923,562C970.136,585.069 986.371,615.898 997,646C986.16,637.349 975.452,629.626 961,629C1006.01,681.645 1023.83,733.937 1024,786C1005.39,770.227 982.947,757.97 952.033,753.49C915.593,747.983 892.493,741.488 879,736C879.728,742.8 888.153,752.456 906,764C844.64,765.693 808.599,733.145 788,687.523C799.769,679.029 810.285,670.22 816,663C820.912,675.345 828.78,683.99 839.117,689.186C848.499,693.902 859.914,695.777 873,695C872.717,688.238 870.963,681.932 868,676C890.695,694.059 915.741,704.421 945,701C925.172,668.402 905.959,646.495 887,629L912,632C900.388,608.149 882.485,594.363 858,595Z" style="fill:url(#_Linear1);"/></g><g transform="matrix(0.736215,-0.676256,0.676481,0.73646,-151.766,546.635)"><path d="M98,338C51.228,296.15 76.53,257.473 96,256C106.793,255.183 111.506,259.701 115,272C118.963,285.949 131.996,291.631 146,293C167.372,295.089 198.757,268.514 282,178C329.101,119.702 392.351,82.27 449,75C515.619,66.45 565.649,81.943 621,133C662.881,133.828 700.747,145.701 735,177C744.22,189.023 776.637,208.78 779,273C781.3,335.505 726.371,413.468 642,430C557.972,445.108 494.892,425.331 467,374C460.392,385.82 462.27,403.287 486,426C514.482,449.384 553.025,458.071 592,458C667.318,455.393 730.968,431.268 777,358C810.085,399.337 836.897,443.641 845.674,496.478C850.023,522.664 849.943,550.945 844,582C837.872,608.38 825.411,634.093 803,656C687.683,754.638 617.764,820.105 576,865C567.806,872.729 558.418,872.469 551,866L468,790C461.522,783.568 461.173,774.696 468,769C495.146,738.378 526.331,710.644 542,678C543.082,675.747 542.333,674.934 537.951,672.212C486.766,640.417 449.237,604.958 429,558C425.659,550.423 418.326,551.389 413,556L324,633C314.47,641.065 305.14,640.916 296,633L216,559C206.405,547.313 206.893,542.058 218,531C270.244,486.253 316.173,440.476 358,388C367.495,374.5 372.533,360.648 372,345C371.72,336.768 367.337,324.498 357,321C340.719,316.429 325.118,309.166 310,300C252.29,340.768 224.143,354.427 192,360C156.686,364.166 125.31,358.638 98,338Z" style="fill:url(#_Linear2);"/></g></g><g transform="matrix(1.03693,0,0,1.03693,449.233,134.089)"><g transform="matrix(0.991371,-0.131088,0.131088,0.991371,52.678,175.825)"><path d="M977.732,-89.685C974.623,-89.996 971.514,-87.82 971.204,-84.711C967.784,-64.504 964.986,-41.5 964.675,4.197C964.054,37.149 966.541,69.169 971.204,95.281C971.825,98.39 974.623,100.566 978.043,100.255L1020.94,94.038C1024.36,93.416 1026.54,90.618 1026.23,87.199C1023.12,57.356 1021.56,29.688 1021.56,4.819C1021.88,-23.47 1023.74,-51.448 1026.85,-78.804C1027.47,-82.224 1024.98,-85.333 1021.25,-85.643L977.732,-89.685ZM1181.35,53.314C1181.35,53.314 1183.84,13.523 1181.97,-18.807C1181.97,-18.807 1194.1,-18.807 1202.8,-19.118C1206.22,-19.118 1209.02,-21.916 1209.02,-25.335C1208.71,-31.553 1208.71,-40.568 1208.71,-46.163C1208.39,-49.272 1206.22,-51.759 1203.42,-52.07C1193.16,-53.624 1179.8,-57.665 1170.16,-66.059C1160.21,-75.385 1154.93,-88.441 1152.75,-98.078C1152.13,-101.187 1149.33,-103.363 1146.22,-103.052L1127.88,-101.498C1124.15,-101.187 1121.66,-98.078 1122.29,-94.348C1124.46,-81.913 1127.26,-64.194 1127.26,-64.194C1126.95,-64.194 1097.42,-62.639 1072.86,-61.085C1069.75,-60.774 1066.95,-57.976 1067.26,-54.868L1067.57,-22.537C1067.57,-19.118 1070.37,-16.32 1073.79,-16.631C1090.58,-16.942 1119.18,-17.253 1125.39,-17.253L1131.61,-17.563L1132.86,19.741C1132.86,19.741 1057.62,-4.507 1048.61,59.221C1041.77,105.851 1077.52,126.368 1104.88,126.368C1144.67,126.368 1161.45,97.768 1161.45,97.768C1161.45,97.768 1167.05,103.986 1172.02,109.27C1174.2,111.447 1177.93,111.757 1180.42,109.581L1205.91,87.51C1208.39,85.334 1208.71,81.292 1206.53,78.805C1195.34,66.06 1181.35,53.314 1181.35,53.314ZM1103.01,88.131C1095.24,88.131 1084.05,81.603 1085.91,69.479C1088.09,54.247 1102.7,52.071 1107.99,52.071C1120.73,52.071 1130.68,60.153 1130.68,60.153C1130.68,60.153 1128.19,88.131 1103.01,88.131ZM1210.88,-147.817C1189.12,-147.817 1171.4,-130.408 1171.4,-108.959C1171.4,-87.509 1189.12,-69.789 1210.88,-69.789C1232.02,-69.789 1249.43,-87.509 1249.43,-108.959C1249.43,-130.098 1231.71,-147.817 1210.88,-147.817ZM1210.88,-91.239C1200.62,-91.239 1192.85,-99.011 1192.85,-108.959C1192.85,-118.595 1200.93,-126.367 1210.88,-126.367C1220.21,-126.367 1228.29,-118.595 1228.29,-108.959C1228.29,-99.011 1220.21,-91.239 1210.88,-91.239Z" style="fill:url(#_Linear3);fill-rule:nonzero;"/></g><g transform="matrix(0.995848,0.0910274,-0.0910274,0.995848,26.0856,-106.148)"><path d="M1262.18,49.273C1256.89,105.229 1321.86,137.87 1362.28,116.11C1398.65,96.214 1402.07,14.145 1402.07,14.145C1402.07,14.145 1434.4,21.606 1443.1,43.367C1450.56,62.64 1445.9,82.847 1441.24,95.592C1439.99,98.701 1441.86,102.431 1445.28,103.364L1481.03,113.312C1483.51,114.244 1486.31,113.001 1487.87,110.825C1498.75,94.349 1518.02,55.49 1492.84,13.834C1467.35,-28.133 1401.76,-31.553 1401.76,-31.553L1400.51,-55.489L1427.25,-55.489C1430.98,-55.489 1433.77,-58.598 1433.46,-62.328L1430.98,-90.928C1430.67,-94.037 1427.87,-96.524 1424.76,-96.524L1396.16,-96.524L1394.29,-114.865C1393.98,-117.974 1391.19,-120.461 1388.08,-120.461L1351.39,-120.461C1347.66,-120.461 1344.87,-117.352 1345.49,-113.622C1346.42,-104.917 1347.35,-96.524 1347.35,-96.524C1347.35,-96.524 1308.81,-94.348 1290.46,-93.104C1287.05,-93.104 1284.56,-90.306 1284.56,-86.887L1284.87,-58.598C1284.87,-54.868 1287.67,-52.07 1291.09,-52.381C1316.58,-53.313 1350.46,-54.557 1350.46,-54.557L1351.08,-27.2C1351.08,-27.2 1267.77,-11.035 1262.18,49.273ZM1320.62,32.175C1331.5,21.606 1349.84,16.943 1349.84,16.943C1349.84,16.943 1350.77,26.269 1348.91,38.704C1344.25,68.858 1333.36,79.427 1322.17,80.049C1306.94,80.982 1294.82,57.356 1320.62,32.175ZM1489.11,-34.972C1496.88,-38.702 1511.18,-45.542 1518.64,-49.272C1521.44,-50.515 1522.68,-53.935 1521.44,-57.044C1518.33,-65.126 1513.36,-76.628 1505.9,-90.617C1498.75,-103.985 1493.15,-112.689 1489.11,-118.285C1487.55,-120.771 1484.13,-121.393 1481.65,-120.15L1451.81,-105.85C1448.38,-104.296 1447.14,-99.943 1449.32,-96.835C1452.74,-91.239 1457.71,-83.467 1463.31,-73.209C1470.77,-59.531 1476.99,-47.407 1480.71,-38.081C1482.27,-34.972 1486,-33.418 1489.11,-34.972Z" style="fill:url(#_Linear4);fill-rule:nonzero;"/></g><g transform="matrix(0.996919,-0.0784332,0.0784332,0.996919,-27.9445,167.695)"><path d="M1714.49,100.255C1739.36,123.881 1781.63,111.136 1798.42,104.297C1801.22,103.364 1802.77,100.255 1802.15,97.147L1790.96,54.869C1790.34,51.449 1786.61,49.273 1783.5,50.516C1758.01,58.288 1751.17,39.636 1745.88,20.051C1741.53,4.197 1735.94,-13.211 1720.7,-22.537C1694.9,-38.702 1663.82,-25.024 1663.82,-25.024L1668.79,-41.189C1676.25,-64.504 1683.71,-87.198 1688.06,-101.187C1689.31,-104.606 1687.44,-108.026 1684.02,-108.959L1642.06,-120.15C1638.95,-120.771 1635.84,-119.217 1634.91,-116.108C1628.69,-99.322 1617.81,-67.302 1602.89,-16.32C1588.28,34.351 1578.64,73.21 1573.66,93.416C1573.04,96.525 1574.91,99.944 1578.33,100.877L1618.74,111.136C1622.16,112.068 1625.58,109.892 1626.51,106.784C1632.73,81.914 1646.1,33.419 1646.1,33.419C1646.1,33.419 1666.3,19.119 1681.23,25.647C1698.94,33.108 1700.5,50.206 1701.43,64.195C1702.36,76.629 1703.3,89.686 1714.49,100.255Z" style="fill:url(#_Linear5);fill-rule:nonzero;"/></g></g><g transform="matrix(5.52102,0,0,5.52102,-5586.5,-2711.54)"><g transform="matrix(1,0,0,1,-31.5159,-6.70166)"><path d="M1433.02,628.18C1460.53,628.18 1475.72,612.715 1475.72,584.521C1475.72,558.107 1459.02,540.862 1433.02,540.862C1407.15,540.862 1390.45,558.107 1390.45,584.521C1390.45,612.715 1405.51,628.18 1433.02,628.18ZM1433.02,562.076C1450.81,562.076 1452.59,580.963 1452.59,584.658C1452.59,599.165 1445.34,607.924 1433.02,607.924C1414.82,607.924 1413.45,590.132 1413.45,584.658C1413.45,569.056 1423.3,562.076 1433.02,562.076Z" style="fill:url(#_Linear6);fill-rule:nonzero;"/></g><g transform="matrix(1,0,0,1,-20.105,-8.51292)"><path d="M1325.31,629.685C1338.59,629.685 1354.32,624.895 1354.32,624.895L1354.32,625.306C1354.32,626.811 1355.56,628.043 1357.06,628.043L1373.62,627.906C1375.13,627.906 1376.36,626.674 1376.36,625.169C1376.36,615.452 1376.36,596.839 1375.4,579.868C1372.66,531.556 1318.88,541.82 1304.92,545.926C1303.55,546.2 1302.73,547.568 1303,548.937L1305.19,562.897C1305.46,564.402 1306.97,565.36 1308.48,565.087C1323.26,562.213 1353.5,561.528 1354.87,579.731C1346.39,577.131 1335.85,576.309 1328.32,576.309C1314.63,576.446 1294.24,580.278 1291.91,599.302C1289.31,621.474 1309.16,629.685 1325.31,629.685ZM1330.37,595.333C1339.68,595.333 1354.6,598.07 1354.6,598.07L1354.6,606.556C1354.6,606.556 1338.72,612.167 1325.04,612.167C1314.77,612.167 1313.13,607.924 1312.86,604.503C1312.72,601.081 1314.22,595.333 1330.37,595.333Z" style="fill:url(#_Linear7);fill-rule:nonzero;"/></g><g transform="matrix(1,0,0,1,-10.5053,0)"><path d="M1202,635.434L1218.69,635.434C1220.06,635.434 1221.29,634.202 1221.29,632.696L1221.43,606.008C1221.43,606.008 1247.43,618.189 1268.79,602.176C1279.87,593.691 1284.93,578.362 1281.79,562.897C1275.08,530.871 1245.66,531.145 1236.35,531.145C1220.34,531.145 1207.2,535.525 1200.63,538.262C1199.67,538.672 1198.99,539.63 1198.99,540.725C1198.99,545.926 1198.99,556.191 1198.85,574.53C1198.71,595.607 1198.99,620.926 1199.26,632.833C1199.26,634.339 1200.49,635.434 1202,635.434ZM1240.45,554.138C1251.13,554.138 1261.39,560.433 1259.48,574.667C1258.11,583.563 1250.72,588.901 1239.63,588.901C1228.27,588.901 1221.7,583.837 1221.7,583.837L1221.7,558.791C1221.7,558.791 1232.65,554.138 1240.45,554.138Z" style="fill:url(#_Linear8);fill-rule:nonzero;"/></g><g transform="matrix(1,0,0,1,-40.3911,-4.8904)"><path d="M1548.26,623.8L1568.1,623.663C1569.47,623.663 1570.7,622.569 1570.7,621.063C1570.98,611.757 1571.39,592.185 1570.15,578.225C1565.78,531.692 1512.4,550.169 1512.4,550.169L1512.26,544.147C1512.26,542.778 1511.03,541.547 1509.66,541.547L1490.5,541.547C1489,541.547 1487.9,542.778 1487.76,544.147C1487.35,564.402 1487.63,607.514 1487.9,620.789C1487.9,622.295 1489.13,623.39 1490.5,623.39L1509.53,623.663C1511.03,623.663 1512.26,622.432 1512.26,620.926L1512.81,572.34C1512.81,572.34 1516.37,569.877 1524.31,569.877C1543.6,569.877 1545.66,586.848 1545.66,594.101C1545.66,601.081 1545.66,613.536 1545.52,621.063C1545.52,622.569 1546.75,623.8 1548.26,623.8Z" style="fill:url(#_Linear9);fill-rule:nonzero;"/></g></g></g></g><defs><linearGradient id="_Linear1" x1="0" y1="0" x2="1" y2="0" gradientUnits="userSpaceOnUse" gradientTransform="matrix(194,1142,-1142,194,889,-219)"><stop offset="0" style="stop-color:#f0a1ff;stop-opacity:1"/><stop offset="1" style="stop-color:#5859ff;stop-opacity:1"/></linearGradient><linearGradient id="_Linear2" x1="0" y1="0" x2="1" y2="0" gradientUnits="userSpaceOnUse" gradientTransform="matrix(194,1142,-1142,194,889,-219)"><stop offset="0" style="stop-color:#f0a1ff;stop-opacity:1"/><stop offset="1" style="stop-color:#5859ff;stop-opacity:1"/></linearGradient><linearGradient id="_Linear3" x1="0" y1="0" x2="1" y2="0" gradientUnits="userSpaceOnUse" gradientTransform="matrix(41.0441,1116.34,-1115.99,41.1538,375.763,-540.213)"><stop offset="0" style="stop-color:#f0a1ff;stop-opacity:1"/><stop offset="1" style="stop-color:#5859ff;stop-opacity:1"/></linearGradient><linearGradient id="_Linear4" x1="0" y1="0" x2="1" y2="0" gradientUnits="userSpaceOnUse" gradientTransform="matrix(286.503,1079.73,-1079.36,286.531,299.368,-331.464)"><stop offset="0" style="stop-color:#f0a1ff;stop-opacity:1"/><stop offset="1" style="stop-color:#5859ff;stop-opacity:1"/></linearGradient><linearGradient id="_Linear5" x1="0" y1="0" x2="1" y2="0" gradientUnits="userSpaceOnUse" gradientTransform="matrix(100.072,1112.6,-1112.24,100.162,426.381,-544.917)"><stop offset="0" style="stop-color:#f0a1ff;stop-opacity:1"/><stop offset="1" style="stop-color:#5859ff;stop-opacity:1"/></linearGradient><linearGradient id="_Linear6" x1="0" y1="0" x2="1" y2="0" gradientUnits="userSpaceOnUse" gradientTransform="matrix(35.1268,206.846,-206.777,35.1384,1191.3,445.306)"><stop offset="0" style="stop-color:#f0a1ff;stop-opacity:1"/><stop offset="1" style="stop-color:#5859ff;stop-opacity:1"/></linearGradient><linearGradient id="_Linear7" x1="0" y1="0" x2="1" y2="0" gradientUnits="userSpaceOnUse" gradientTransform="matrix(35.1268,206.846,-206.777,35.1384,1179.89,447.117)"><stop offset="0" style="stop-color:#f0a1ff;stop-opacity:1"/><stop offset="1" style="stop-color:#5859ff;stop-opacity:1"/></linearGradient><linearGradient id="_Linear8" x1="0" y1="0" x2="1" y2="0" gradientUnits="userSpaceOnUse" gradientTransform="matrix(35.1268,206.846,-206.777,35.1384,1170.29,438.604)"><stop offset="0" style="stop-color:#f0a1ff;stop-opacity:1"/><stop offset="1" style="stop-color:#5859ff;stop-opacity:1"/></linearGradient><linearGradient id="_Linear9" x1="0" y1="0" x2="1" y2="0" gradientUnits="userSpaceOnUse" gradientTransform="matrix(35.1268,206.846,-206.777,35.1384,1200.18,443.494)"><stop offset="0" style="stop-color:#f0a1ff;stop-opacity:1"/><stop offset="1" style="stop-color:#5859ff;stop-opacity:1"/></linearGradient></defs></svg>